# xmcd
#
# Track frame offsets:
#	150
#	7511
#	19785
#	25185
#	32549
#	41343
#	44811
#	52785
#	58511
#	62633
#	71446
#	84130
#	97429
#	102945
#	110228
#	123428
#	127925
#	135078
#	138181
#	143581
#	150122
#	157132
#	165721
#	169996
#	179608
#	187896
#	194853
#	196823
#	210370
#	215320
#	221095
#	230170
#	238758
#	248288
#	255443
#	258312
#	274062
#	284355
#	306256
#
# Disc length: 4409 seconds
#
# Revision: 0
# Processed by: cddbd v1.5.2PL0 Copyright (c) Steve Scherf et al.
# Submitted via: EZCDAudioConverter 2.1.7.1
#
DISCID=1e113727
DTITLE=Kyle Dixon and Michael Stein - Stranger Things V2
DYEAR=1900
DGENRE=
TTITLE0=Hopper Sneaks In
TTITLE1=I Know What I Saw
TTITLE2=Rolling Out The Pool
TTITLE3=Over
TTITLE4=Gearing Up
TTITLE5=Flickering
TTITLE6=First Kiss
TTITLE7=Crying
TTITLE8=Walking Down The Tracks
TTITLE9=Where's Barb?
TTITLE10=Speak Of The Devil
TTITLE11=Danger Danger
TTITLE12=Tribulations
TTITLE13=Flashback
TTITLE14=Kids Two
TTITLE15=Talking To Australia
TTITLE16=Night Of The Seventh
TTITLE17=See Any Rain?
TTITLE18=Coffee and Contemplation
TTITLE19=Inside The Back Room
TTITLE20=Starts To Rain
TTITLE21=Eleven Is Gone
TTITLE22=Time For A 187
TTITLE23=Something In The House
TTITLE24=Still Pretty
TTITLE25=Abilities
TTITLE26=Tendril
TTITLE27=They Found Us
TTITLE28=Bad Men
TTITLE29=Spiked Bat
TTITLE30=Making Contact
TTITLE31=What Do You Know?
TTITLE32=It's Not My Boy
TTITLE33=Something In The Wall
TTITLE34=Let's Go
TTITLE35=Leap Of Faith
TTITLE36=In Pursuit
TTITLE37=Breaking And Entering
TTITLE38=Stranger Things [Extended]
EXTD=
EXTT0=
EXTT1=
EXTT2=
EXTT3=
EXTT4=
EXTT5=
EXTT6=
EXTT7=
EXTT8=
EXTT9=
EXTT10=
EXTT11=
EXTT12=
EXTT13=
EXTT14=
EXTT15=
EXTT16=
EXTT17=
EXTT18=
EXTT19=
EXTT20=
EXTT21=
EXTT22=
EXTT23=
EXTT24=
EXTT25=
EXTT26=
EXTT27=
EXTT28=
EXTT29=
EXTT30=
EXTT31=
EXTT32=
EXTT33=
EXTT34=
EXTT35=
EXTT36=
EXTT37=
EXTT38=
PLAYORDER=
